<svg version="1.1" id="Layer_1" xmlns="http://www.w3.org/2000/svg" xmlns:xlink="http://www.w3.org/1999/xlink" x="0px" y="0px"
	 width="100%" viewBox="0 0 1024 1024" enable-background="new 0 0 1024 1024" xml:space="preserve">
<path fill="#010101" opacity="1.000000" stroke="none" 
	d="
M1025.000000,205.000000 
	C1025.000000,410.360199 1025.000000,615.720398 1024.625854,821.708252 
	C1021.419250,847.799316 1015.123474,872.336121 1003.819824,895.386475 
	C994.560425,914.268433 984.249573,932.457031 968.590820,947.110413 
	C959.907043,955.236694 952.626221,964.935913 943.582275,972.590149 
	C914.245483,997.419250 880.546692,1013.636902 842.753906,1021.075317 
	C835.204224,1022.561340 827.586426,1023.700806 820.000000,1025.000000 
	C614.639771,1025.000000 409.279602,1025.000000 203.318329,1024.618652 
	C196.812164,1023.300049 190.879623,1022.508545 185.006393,1021.402161 
	C145.925400,1014.039978 111.304993,997.144409 81.095741,971.499084 
	C40.952625,937.420654 15.329674,894.532715 4.956197,842.757629 
	C3.444090,835.210449 2.309356,827.587769 1.000004,820.000000 
	C1.000000,615.639771 1.000000,411.279602 1.373690,206.290451 
	C3.211193,196.473663 4.218406,187.185623 6.209666,178.113556 
	C25.458935,90.415039 97.190887,21.259312 185.743210,4.819408 
	C192.821213,3.505363 199.914047,2.271255 207.000000,0.999999 
	C410.026855,1.000000 613.053711,1.000000 816.743164,1.368948 
	C824.342896,2.554939 831.327637,3.086532 838.210083,4.232215 
	C928.732666,19.300875 1004.328064,93.605881 1021.046326,183.832565 
	C1022.354004,190.890259 1023.681641,197.944275 1025.000000,205.000000 
M544.925598,248.438263 
	C536.777466,254.071350 528.629333,259.704437 520.615967,265.244385 
	C527.319641,279.205109 523.456726,289.938110 512.449402,298.666199 
	C519.257751,311.145721 515.365601,326.665283 499.081238,334.379395 
	C499.934113,351.625916 494.706696,359.281250 478.589722,364.388428 
	C476.351776,386.293091 468.285034,391.680786 443.643585,387.658752 
	C443.441986,388.070374 443.140411,388.481689 443.030762,388.939056 
	C435.218628,421.519440 423.289978,452.748535 411.702118,484.081573 
	C404.113007,504.602234 395.490082,524.556824 379.850769,540.612610 
	C370.784698,549.920105 361.982758,559.490784 353.228271,569.094604 
	C339.373810,584.292969 330.259155,601.980774 325.714478,622.065308 
	C322.291840,637.191162 321.836182,652.398499 323.736694,667.741943 
	C324.428680,673.328308 321.940247,677.121033 317.318787,677.926819 
	C312.471100,678.772095 308.588623,675.794189 307.687775,670.255981 
	C307.127441,666.811462 306.844391,663.312927 306.601471,659.827148 
	C304.492188,629.562378 310.267822,601.168823 327.218109,575.619202 
	C329.750549,571.802063 330.609497,568.453003 329.318390,564.079529 
	C327.579681,558.189941 326.602631,552.077454 324.910492,546.171814 
	C311.088379,497.933167 283.857697,460.824951 236.658157,440.447510 
	C231.173233,438.079559 225.471619,436.216797 219.959290,433.907776 
	C216.358917,432.399628 214.010300,429.217957 215.213303,425.587708 
	C216.114410,422.868469 218.775543,420.236450 221.339722,418.750519 
	C222.875473,417.860535 225.889694,418.855957 227.969803,419.682434 
	C239.042770,424.081818 250.030533,428.695618 261.665100,433.489563 
	C261.102997,423.830444 260.724976,414.075653 259.937164,404.354095 
	C256.322601,359.748627 243.059662,318.420105 218.069351,281.029327 
	C195.044067,246.578598 165.182190,221.516525 124.108376,211.497620 
	C109.353470,207.898560 94.463417,205.634552 79.004494,205.870941 
	C79.243279,207.103165 79.361488,207.914780 79.559631,208.706390 
	C86.463982,236.290756 93.316933,263.888123 100.297226,291.453278 
	C126.215256,393.803162 152.161697,496.145844 178.129562,598.483093 
	C184.753494,624.587402 190.865555,650.903198 204.185150,674.693726 
	C226.810928,715.106201 255.910019,750.570312 288.514191,783.201050 
	C301.992828,796.690613 317.369110,807.886108 335.139526,815.305054 
	C358.539124,825.074158 382.291962,821.509338 397.074768,794.592651 
	C405.449310,779.344177 415.388885,764.812988 425.861420,750.889771 
	C445.438507,724.862183 460.640869,696.639587 472.118866,666.249207 
	C488.668549,622.430298 499.551361,576.993958 511.017151,531.711609 
	C517.177185,507.383514 523.492554,483.091522 530.075012,458.874908 
	C533.425476,446.548553 540.984009,437.597351 552.763428,431.904022 
	C560.507507,428.161011 568.119690,423.764343 574.926636,418.535339 
	C594.331665,403.628601 610.280823,385.204956 625.627380,366.305603 
	C628.275391,363.044647 630.016235,358.820038 631.349121,354.768524 
	C633.666321,347.725128 631.195068,340.226501 625.553406,335.800354 
	C622.905396,338.701935 620.236816,341.638275 617.554321,344.561798 
	C615.121521,347.213226 612.277649,348.476440 609.330444,345.675262 
	C606.504272,342.989136 607.915833,340.258179 610.068970,337.782043 
	C614.113647,333.130646 618.341919,328.620026 622.122131,323.761627 
	C629.597473,314.154358 626.593140,302.019867 615.636414,297.261169 
	C611.905090,301.200043 608.100281,305.155518 604.367676,309.177948 
	C601.819458,311.924011 598.926392,313.530609 595.747375,310.598053 
	C592.452332,307.558380 594.192993,304.717621 596.771179,302.032349 
	C601.617004,296.985260 606.583801,292.022675 611.052429,286.652252 
	C618.246887,278.005829 614.575867,265.088837 604.312805,261.707520 
	C600.806824,260.552399 597.978760,260.955536 595.245178,263.686188 
	C590.295776,268.630280 585.066895,273.293488 579.996948,278.118347 
	C577.261658,280.721466 574.204468,282.014801 571.272095,278.942535 
	C568.209717,275.734009 570.090027,272.952026 572.862488,270.460693 
	C579.182678,264.781464 585.435791,259.027374 591.688171,253.273315 
	C595.456604,249.805298 596.690369,245.594330 595.383850,240.591293 
	C592.446716,229.344040 581.136475,224.425766 571.108765,230.614990 
	C562.337708,236.028549 554.033081,242.197708 544.925598,248.438263 
M534.527832,504.002625 
	C530.860413,519.366333 527.045837,534.697571 523.640320,550.119080 
	C522.890198,553.515808 522.838745,557.437195 523.743286,560.770325 
	C531.012634,587.558228 537.954529,614.460999 546.227234,640.944153 
	C557.126404,675.835510 571.329346,709.422791 593.044189,739.142456 
	C607.195923,758.511047 621.210266,777.870483 633.068176,798.784241 
	C642.064575,814.651306 656.282715,821.923950 674.479370,819.816040 
	C681.136414,819.044861 687.875183,817.040894 694.045654,814.371582 
	C712.476624,806.398315 728.055237,794.108032 742.100830,779.992371 
	C768.620178,753.340881 791.868469,723.960754 812.570984,692.622803 
	C825.388489,673.220520 834.903259,652.180359 840.773865,629.597961 
	C845.208008,612.540955 849.622925,595.478455 853.940491,578.391663 
	C881.843872,467.966125 909.717957,357.533142 937.602234,247.102753 
	C941.040527,233.486145 944.482178,219.870407 948.063354,205.695648 
	C913.583740,206.393112 881.832153,213.925415 853.741577,233.659088 
	C829.784912,250.488632 812.297607,273.058594 798.223022,298.321869 
	C776.716614,336.924774 767.093018,378.747589 765.899475,422.692596 
	C765.798584,426.406250 765.886169,430.125000 765.886169,434.460724 
	C768.204712,433.210449 769.727356,432.221130 771.374756,431.528534 
	C781.464355,427.286255 791.484741,422.849731 801.734741,419.032257 
	C806.345276,417.315125 810.416687,419.742676 811.861389,423.785248 
	C813.375732,428.022186 811.341858,432.096069 806.592102,434.171967 
	C804.921082,434.902283 803.174683,435.461121 801.458008,436.085388 
	C779.916748,443.918549 760.452515,455.143921 744.161560,471.453278 
	C717.488220,498.156799 704.246582,531.459045 697.222412,567.742432 
	C696.917908,569.314880 697.446777,571.464050 698.374512,572.796631 
	C710.124023,589.675476 717.435303,608.391296 719.377625,628.721436 
	C720.668274,642.231323 719.997925,655.960266 719.669067,669.578247 
	C719.529236,675.368835 715.447998,678.497986 710.600281,677.940979 
	C705.491699,677.353943 702.963928,673.432983 703.608765,667.313110 
	C703.957764,664.001221 704.170837,660.671570 704.340088,657.344666 
	C706.072021,623.301147 695.932739,593.384033 673.049805,567.978333 
	C667.475769,561.789734 661.582764,555.889160 655.870605,549.824036 
	C644.094666,537.320251 632.225464,524.809204 625.827332,508.474548 
	C616.013733,483.420166 606.510559,458.244141 596.907593,433.107513 
	C595.865112,430.378662 595.033142,427.569427 594.474365,425.903290 
	C582.237732,433.313416 570.308105,440.820312 558.086792,447.817810 
	C552.081116,451.256470 547.851990,455.856537 545.986450,462.354370 
	C542.089539,475.927795 538.496460,489.588440 534.527832,504.002625 
M440.321106,266.186340 
	C437.858032,264.802155 435.535034,262.940125 432.893219,262.165741 
	C430.149689,261.361511 426.922028,260.884338 424.215302,261.540192 
	C417.486084,263.170807 412.425781,270.507202 411.981628,278.146210 
	C411.594208,284.808929 412.743011,286.228943 421.617889,290.065186 
	C422.380554,290.394867 423.149261,290.713470 423.896332,291.076080 
	C444.532288,301.092773 465.184021,311.077240 485.789276,321.156708 
	C492.529297,324.453674 498.743866,322.423615 501.857758,315.644806 
	C504.820007,309.196106 502.773712,303.594543 495.718323,299.361572 
	C477.470581,288.413696 459.186279,277.526855 440.321106,266.186340 
M423.213318,332.159821 
	C439.272949,338.459656 455.306396,344.827545 471.405670,351.024414 
	C477.482300,353.363342 483.061951,350.769653 485.711823,344.787659 
	C488.437531,338.634491 486.676758,332.923431 480.766357,330.019989 
	C460.968964,320.294800 441.131073,310.651001 421.253754,301.090240 
	C414.437378,297.811615 408.656036,298.951935 404.600372,303.942780 
	C399.478577,310.245422 398.387390,320.111328 402.625793,325.270264 
	C403.843781,326.752747 406.098297,327.631683 408.048737,328.215118 
	C412.798676,329.635895 417.648956,330.721344 423.213318,332.159821 
M435.939880,372.496155 
	C441.502869,374.200470 447.017700,376.089447 452.642426,377.557220 
	C458.276672,379.027466 463.147766,376.110107 465.239899,370.462891 
	C467.217316,365.125336 465.535797,360.243439 460.203735,358.077332 
	C444.816223,351.826172 429.366669,345.714142 413.810059,339.899139 
	C407.212128,337.432892 401.280884,339.868988 397.388092,345.762115 
	C393.809906,351.178894 393.334320,357.343170 395.619019,363.017487 
	C398.321533,369.729523 401.795837,376.278198 405.886597,382.245789 
	C410.782898,389.388489 416.684631,395.841980 422.626709,403.181671 
	C424.618164,395.483978 426.315094,388.924744 428.101654,382.018951 
	C423.584076,380.625641 419.331909,379.295898 415.068054,378.004761 
	C411.432587,376.903931 408.969604,374.743042 410.081451,370.723236 
	C411.280884,366.386719 414.692932,365.967804 418.498169,367.117249 
	C424.066345,368.799286 429.624908,370.513275 435.939880,372.496155 
M523.568420,214.598450 
	C518.360229,212.971909 513.711670,214.656616 509.298462,217.191757 
	C498.082764,223.634506 486.918854,230.167374 475.737946,236.670532 
	C471.300537,239.251434 470.130707,243.826279 473.804596,247.437973 
	C476.654236,250.239365 480.364746,252.724228 484.144653,253.916168 
	C495.853424,257.608368 506.421326,254.240112 516.015442,247.182236 
	C519.751953,244.433456 523.352905,242.328171 526.532776,247.757141 
	C534.205444,242.339493 541.445740,237.227158 549.340637,231.652618 
	C540.530701,225.726700 532.436462,220.282196 523.568420,214.598450 
M503.048950,265.862213 
	C497.589508,266.208832 492.084747,267.169250 486.680298,266.770447 
	C476.371918,266.009674 467.707245,261.576721 462.385834,252.355728 
	C458.228271,245.151413 458.861572,237.868546 464.085114,231.222473 
	C450.683563,224.450714 437.772675,229.582794 434.465057,242.665207 
	C432.917786,248.785034 434.105286,251.376373 439.581329,254.331497 
	C442.650787,255.987930 445.628693,257.815796 448.628906,259.598267 
	C464.204987,268.852295 479.752686,278.154388 495.357391,287.359802 
	C502.201294,291.397095 508.535461,288.861725 510.983856,281.282410 
	C512.906372,275.331055 510.753876,270.704865 503.048950,265.862213 
z"/>
<path fill="#FEFEFE" opacity="1.000000" stroke="none" 
	d="
M206.531342,0.999999 
	C199.914047,2.271255 192.821213,3.505363 185.743210,4.819408 
	C97.190887,21.259312 25.458935,90.415039 6.209666,178.113556 
	C4.218406,187.185623 3.211193,196.473663 1.373690,205.830750 
	C1.000000,137.739456 1.000000,69.478912 1.000000,1.000000 
	C69.354073,1.000000 137.708374,1.000000 206.531342,0.999999 
z"/>
<path fill="#FEFEFE" opacity="1.000000" stroke="none" 
	d="
M1025.000000,204.531342 
	C1023.681641,197.944275 1022.354004,190.890259 1021.046326,183.832565 
	C1004.328064,93.605881 928.732666,19.300875 838.210083,4.232215 
	C831.327637,3.086532 824.342896,2.554939 817.202881,1.368948 
	C886.259644,1.000000 955.519287,1.000000 1025.000000,1.000000 
	C1025.000000,68.687401 1025.000000,136.375046 1025.000000,204.531342 
z"/>
<path fill="#FEFEFE" opacity="1.000000" stroke="none" 
	d="
M1.000004,820.468628 
	C2.309356,827.587769 3.444090,835.210449 4.956197,842.757629 
	C15.329674,894.532715 40.952625,937.420654 81.095741,971.499084 
	C111.304993,997.144409 145.925400,1014.039978 185.006393,1021.402161 
	C190.879623,1022.508545 196.812164,1023.300049 202.858643,1024.618652 
	C135.739105,1025.000000 68.478210,1025.000000 1.000000,1025.000000 
	C1.000000,956.979248 1.000000,888.958313 1.000004,820.468628 
z"/>
<path fill="#FEFEFE" opacity="1.000000" stroke="none" 
	d="
M820.468628,1025.000000 
	C827.586426,1023.700806 835.204224,1022.561340 842.753906,1021.075317 
	C880.546692,1013.636902 914.245483,997.419250 943.582275,972.590149 
	C952.626221,964.935913 959.907043,955.236694 968.590820,947.110413 
	C984.249573,932.457031 994.560425,914.268433 1003.819824,895.386475 
	C1015.123474,872.336121 1021.419250,847.799316 1024.625854,822.167969 
	C1025.000000,889.594055 1025.000000,957.188049 1025.000000,1025.000000 
	C956.979248,1025.000000 888.958313,1025.000000 820.468628,1025.000000 
z"/>
<path fill="#FEFEFE" opacity="1.000000" stroke="none" 
	d="
M545.223999,248.235657 
	C554.033081,242.197708 562.337708,236.028549 571.108765,230.614990 
	C581.136475,224.425766 592.446716,229.344040 595.383850,240.591293 
	C596.690369,245.594330 595.456604,249.805298 591.688171,253.273315 
	C585.435791,259.027374 579.182678,264.781464 572.862488,270.460693 
	C570.090027,272.952026 568.209717,275.734009 571.272095,278.942535 
	C574.204468,282.014801 577.261658,280.721466 579.996948,278.118347 
	C585.066895,273.293488 590.295776,268.630280 595.245178,263.686188 
	C597.978760,260.955536 600.806824,260.552399 604.312805,261.707520 
	C614.575867,265.088837 618.246887,278.005829 611.052429,286.652252 
	C606.583801,292.022675 601.617004,296.985260 596.771179,302.032349 
	C594.192993,304.717621 592.452332,307.558380 595.747375,310.598053 
	C598.926392,313.530609 601.819458,311.924011 604.367676,309.177948 
	C608.100281,305.155518 611.905090,301.200043 615.636414,297.261169 
	C626.593140,302.019867 629.597473,314.154358 622.122131,323.761627 
	C618.341919,328.620026 614.113647,333.130646 610.068970,337.782043 
	C607.915833,340.258179 606.504272,342.989136 609.330444,345.675262 
	C612.277649,348.476440 615.121521,347.213226 617.554321,344.561798 
	C620.236816,341.638275 622.905396,338.701935 625.553406,335.800354 
	C631.195068,340.226501 633.666321,347.725128 631.349121,354.768524 
	C630.016235,358.820038 628.275391,363.044647 625.627380,366.305603 
	C610.280823,385.204956 594.331665,403.628601 574.926636,418.535339 
	C568.119690,423.764343 560.507507,428.161011 552.763428,431.904022 
	C540.984009,437.597351 533.425476,446.548553 530.075012,458.874908 
	C523.492554,483.091522 517.177185,507.383514 511.017151,531.711609 
	C499.551361,576.993958 488.668549,622.430298 472.118866,666.249207 
	C460.640869,696.639587 445.438507,724.862183 425.861420,750.889771 
	C415.388885,764.812988 405.449310,779.344177 397.074768,794.592651 
	C382.291962,821.509338 358.539124,825.074158 335.139526,815.305054 
	C317.369110,807.886108 301.992828,796.690613 288.514191,783.201050 
	C255.910019,750.570312 226.810928,715.106201 204.185150,674.693726 
	C190.865555,650.903198 184.753494,624.587402 178.129562,598.483093 
	C152.161697,496.145844 126.215256,393.803162 100.297226,291.453278 
	C93.316933,263.888123 86.463982,236.290756 79.559631,208.706390 
	C79.361488,207.914780 79.243279,207.103165 79.004494,205.870941 
	C94.463417,205.634552 109.353470,207.898560 124.108376,211.497620 
	C165.182190,221.516525 195.044067,246.578598 218.069351,281.029327 
	C243.059662,318.420105 256.322601,359.748627 259.937164,404.354095 
	C260.724976,414.075653 261.102997,423.830444 261.665100,433.489563 
	C250.030533,428.695618 239.042770,424.081818 227.969803,419.682434 
	C225.889694,418.855957 222.875473,417.860535 221.339722,418.750519 
	C218.775543,420.236450 216.114410,422.868469 215.213303,425.587708 
	C214.010300,429.217957 216.358917,432.399628 219.959290,433.907776 
	C225.471619,436.216797 231.173233,438.079559 236.658157,440.447510 
	C283.857697,460.824951 311.088379,497.933167 324.910492,546.171814 
	C326.602631,552.077454 327.579681,558.189941 329.318390,564.079529 
	C330.609497,568.453003 329.750549,571.802063 327.218109,575.619202 
	C310.267822,601.168823 304.492188,629.562378 306.601471,659.827148 
	C306.844391,663.312927 307.127441,666.811462 307.687775,670.255981 
	C308.588623,675.794189 312.471100,678.772095 317.318787,677.926819 
	C321.940247,677.121033 324.428680,673.328308 323.736694,667.741943 
	C321.836182,652.398499 322.291840,637.191162 325.714478,622.065308 
	C330.259155,601.980774 339.373810,584.292969 353.228271,569.094604 
	C361.982758,559.490784 370.784698,549.920105 379.850769,540.612610 
	C395.490082,524.556824 404.113007,504.602234 411.702118,484.081573 
	C423.289978,452.748535 435.218628,421.519440 443.030762,388.939056 
	C443.140411,388.481689 443.441986,388.070374 443.643585,387.658752 
	C468.285034,391.680786 476.351776,386.293091 478.589722,364.388428 
	C494.706696,359.281250 499.934113,351.625916 499.081238,334.379395 
	C515.365601,326.665283 519.257751,311.145721 512.449402,298.666199 
	C523.456726,289.938110 527.319641,279.205109 520.615967,265.244385 
	C528.629333,259.704437 536.777466,254.071350 545.223999,248.235657 
M208.155243,569.323914 
	C214.781860,582.320190 220.737671,595.717529 228.205887,608.210693 
	C237.418304,623.621643 250.090134,636.252869 264.131836,647.437195 
	C267.359161,650.007751 270.868469,651.270508 274.657562,648.672913 
	C277.898468,646.451111 279.199677,643.092102 277.913208,639.495850 
	C277.133942,637.317627 275.273682,635.278931 273.415894,633.773987 
	C261.679321,624.266541 251.582352,613.278931 242.995560,600.877686 
	C224.953644,574.820923 216.053894,545.470642 211.949280,514.417480 
	C211.063278,507.714417 208.157837,504.440125 202.911667,504.806763 
	C197.649307,505.174500 195.167709,508.942688 195.815308,515.730957 
	C197.546249,533.875305 201.722549,551.461792 208.155243,569.323914 
M362.271667,758.770142 
	C356.099274,765.350525 348.690155,768.146606 339.722809,766.088196 
	C331.243469,764.141785 324.906799,758.893494 319.028076,752.825623 
	C315.499481,749.183594 310.691956,748.994873 307.415100,751.982666 
	C303.940552,755.150696 303.713837,760.210938 307.175232,764.028687 
	C313.622650,771.139648 321.051147,777.031860 330.094543,780.479919 
	C349.690826,787.951721 369.567017,780.676758 381.005280,760.691528 
	C383.404205,756.500122 381.887970,751.537354 378.068390,749.349670 
	C374.246429,747.160522 370.046143,748.221497 367.120819,752.160461 
	C365.633850,754.162659 364.212341,756.213379 362.271667,758.770142 
z"/>
<path fill="#FEFEFE" opacity="1.000000" stroke="none" 
	d="
M534.653198,503.607910 
	C538.496460,489.588440 542.089539,475.927795 545.986450,462.354370 
	C547.851990,455.856537 552.081116,451.256470 558.086792,447.817810 
	C570.308105,440.820312 582.237732,433.313416 594.474365,425.903290 
	C595.033142,427.569427 595.865112,430.378662 596.907593,433.107513 
	C606.510559,458.244141 616.013733,483.420166 625.827332,508.474548 
	C632.225464,524.809204 644.094666,537.320251 655.870605,549.824036 
	C661.582764,555.889160 667.475769,561.789734 673.049805,567.978333 
	C695.932739,593.384033 706.072021,623.301147 704.340088,657.344666 
	C704.170837,660.671570 703.957764,664.001221 703.608765,667.313110 
	C702.963928,673.432983 705.491699,677.353943 710.600281,677.940979 
	C715.447998,678.497986 719.529236,675.368835 719.669067,669.578247 
	C719.997925,655.960266 720.668274,642.231323 719.377625,628.721436 
	C717.435303,608.391296 710.124023,589.675476 698.374512,572.796631 
	C697.446777,571.464050 696.917908,569.314880 697.222412,567.742432 
	C704.246582,531.459045 717.488220,498.156799 744.161560,471.453278 
	C760.452515,455.143921 779.916748,443.918549 801.458008,436.085388 
	C803.174683,435.461121 804.921082,434.902283 806.592102,434.171967 
	C811.341858,432.096069 813.375732,428.022186 811.861389,423.785248 
	C810.416687,419.742676 806.345276,417.315125 801.734741,419.032257 
	C791.484741,422.849731 781.464355,427.286255 771.374756,431.528534 
	C769.727356,432.221130 768.204712,433.210449 765.886169,434.460724 
	C765.886169,430.125000 765.798584,426.406250 765.899475,422.692596 
	C767.093018,378.747589 776.716614,336.924774 798.223022,298.321869 
	C812.297607,273.058594 829.784912,250.488632 853.741577,233.659088 
	C881.832153,213.925415 913.583740,206.393112 948.063354,205.695648 
	C944.482178,219.870407 941.040527,233.486145 937.602234,247.102753 
	C909.717957,357.533142 881.843872,467.966125 853.940491,578.391663 
	C849.622925,595.478455 845.208008,612.540955 840.773865,629.597961 
	C834.903259,652.180359 825.388489,673.220520 812.570984,692.622803 
	C791.868469,723.960754 768.620178,753.340881 742.100830,779.992371 
	C728.055237,794.108032 712.476624,806.398315 694.045654,814.371582 
	C687.875183,817.040894 681.136414,819.044861 674.479370,819.816040 
	C656.282715,821.923950 642.064575,814.651306 633.068176,798.784241 
	C621.210266,777.870483 607.195923,758.511047 593.044189,739.142456 
	C571.329346,709.422791 557.126404,675.835510 546.227234,640.944153 
	C537.954529,614.460999 531.012634,587.558228 523.743286,560.770325 
	C522.838745,557.437195 522.890198,553.515808 523.640320,550.119080 
	C527.045837,534.697571 530.860413,519.366333 534.653198,503.607910 
M807.202026,552.680603 
	C797.364624,584.999878 780.231262,612.503418 753.699585,633.820312 
	C752.416504,634.851196 751.081055,635.969788 750.209229,637.329224 
	C748.093750,640.627563 748.269836,644.065918 750.872803,647.000549 
	C753.422729,649.875427 756.671875,650.832275 760.318848,649.027832 
	C761.497437,648.444580 762.615723,647.682678 763.640198,646.852661 
	C806.120239,612.436584 825.953613,566.459045 831.666138,513.322205 
	C832.127808,509.027985 828.902832,505.357208 824.880615,504.863678 
	C820.487366,504.324615 817.067383,506.612213 815.914490,510.967194 
	C815.532898,512.408936 815.427124,513.921204 815.122620,515.386169 
	C812.590698,527.570251 810.041809,539.750916 807.202026,552.680603 
M654.206970,748.253784 
	C646.605225,749.009583 642.793274,754.333069 646.177002,760.373840 
	C653.281067,773.056213 663.581055,781.721863 678.631653,783.092773 
	C695.799072,784.656555 708.458618,775.895874 719.742371,764.382874 
	C723.447571,760.602356 723.557861,755.667786 720.275940,752.371460 
	C716.822205,748.902405 712.014160,749.227478 707.925232,753.062988 
	C705.264221,755.559143 702.619507,758.123535 699.681396,760.264771 
	C684.976257,770.981873 671.058044,768.403870 660.792908,753.437683 
	C659.390259,751.392639 656.919495,750.080261 654.206970,748.253784 
z"/>
<path fill="#FCFCFC" opacity="1.000000" stroke="none" 
	d="
M440.618835,266.401001 
	C459.186279,277.526855 477.470581,288.413696 495.718323,299.361572 
	C502.773712,303.594543 504.820007,309.196106 501.857758,315.644806 
	C498.743866,322.423615 492.529297,324.453674 485.789276,321.156708 
	C465.184021,311.077240 444.532288,301.092773 423.896332,291.076080 
	C423.149261,290.713470 422.380554,290.394867 421.617889,290.065186 
	C412.743011,286.228943 411.594208,284.808929 411.981628,278.146210 
	C412.425781,270.507202 417.486084,263.170807 424.215302,261.540192 
	C426.922028,260.884338 430.149689,261.361511 432.893219,262.165741 
	C435.535034,262.940125 437.858032,264.802155 440.618835,266.401001 
z"/>
<path fill="#FCFCFC" opacity="1.000000" stroke="none" 
	d="
M422.836060,332.050842 
	C417.648956,330.721344 412.798676,329.635895 408.048737,328.215118 
	C406.098297,327.631683 403.843781,326.752747 402.625793,325.270264 
	C398.387390,320.111328 399.478577,310.245422 404.600372,303.942780 
	C408.656036,298.951935 414.437378,297.811615 421.253754,301.090240 
	C441.131073,310.651001 460.968964,320.294800 480.766357,330.019989 
	C486.676758,332.923431 488.437531,338.634491 485.711823,344.787659 
	C483.061951,350.769653 477.482300,353.363342 471.405670,351.024414 
	C455.306396,344.827545 439.272949,338.459656 422.836060,332.050842 
z"/>
<path fill="#FBFBFB" opacity="1.000000" stroke="none" 
	d="
M435.563721,372.354858 
	C429.624908,370.513275 424.066345,368.799286 418.498169,367.117249 
	C414.692932,365.967804 411.280884,366.386719 410.081451,370.723236 
	C408.969604,374.743042 411.432587,376.903931 415.068054,378.004761 
	C419.331909,379.295898 423.584076,380.625641 428.101654,382.018951 
	C426.315094,388.924744 424.618164,395.483978 422.626709,403.181671 
	C416.684631,395.841980 410.782898,389.388489 405.886597,382.245789 
	C401.795837,376.278198 398.321533,369.729523 395.619019,363.017487 
	C393.334320,357.343170 393.809906,351.178894 397.388092,345.762115 
	C401.280884,339.868988 407.212128,337.432892 413.810059,339.899139 
	C429.366669,345.714142 444.816223,351.826172 460.203735,358.077332 
	C465.535797,360.243439 467.217316,365.125336 465.239899,370.462891 
	C463.147766,376.110107 458.276672,379.027466 452.642426,377.557220 
	C447.017700,376.089447 441.502869,374.200470 435.563721,372.354858 
z"/>
<path fill="#FCFCFC" opacity="1.000000" stroke="none" 
	d="
M523.955322,214.718079 
	C532.436462,220.282196 540.530701,225.726700 549.340637,231.652618 
	C541.445740,237.227158 534.205444,242.339493 526.532776,247.757141 
	C523.352905,242.328171 519.751953,244.433456 516.015442,247.182236 
	C506.421326,254.240112 495.853424,257.608368 484.144653,253.916168 
	C480.364746,252.724228 476.654236,250.239365 473.804596,247.437973 
	C470.130707,243.826279 471.300537,239.251434 475.737946,236.670532 
	C486.918854,230.167374 498.082764,223.634506 509.298462,217.191757 
	C513.711670,214.656616 518.360229,212.971909 523.955322,214.718079 
z"/>
<path fill="#FAFAFA" opacity="1.000000" stroke="none" 
	d="
M503.453430,265.914673 
	C510.753876,270.704865 512.906372,275.331055 510.983856,281.282410 
	C508.535461,288.861725 502.201294,291.397095 495.357391,287.359802 
	C479.752686,278.154388 464.204987,268.852295 448.628906,259.598267 
	C445.628693,257.815796 442.650787,255.987930 439.581329,254.331497 
	C434.105286,251.376373 432.917786,248.785034 434.465057,242.665207 
	C437.772675,229.582794 450.683563,224.450714 464.085114,231.222473 
	C458.861572,237.868546 458.228271,245.151413 462.385834,252.355728 
	C467.707245,261.576721 476.371918,266.009674 486.680298,266.770447 
	C492.084747,267.169250 497.589508,266.208832 503.453430,265.914673 
z"/>
<path fill="#040404" opacity="1.000000" stroke="none" 
	d="
M208.055725,568.948730 
	C201.722549,551.461792 197.546249,533.875305 195.815308,515.730957 
	C195.167709,508.942688 197.649307,505.174500 202.911667,504.806763 
	C208.157837,504.440125 211.063278,507.714417 211.949280,514.417480 
	C216.053894,545.470642 224.953644,574.820923 242.995560,600.877686 
	C251.582352,613.278931 261.679321,624.266541 273.415894,633.773987 
	C275.273682,635.278931 277.133942,637.317627 277.913208,639.495850 
	C279.199677,643.092102 277.898468,646.451111 274.657562,648.672913 
	C270.868469,651.270508 267.359161,650.007751 264.131836,647.437195 
	C250.090134,636.252869 237.418304,623.621643 228.205887,608.210693 
	C220.737671,595.717529 214.781860,582.320190 208.055725,568.948730 
z"/>
<path fill="#050505" opacity="1.000000" stroke="none" 
	d="
M362.516418,758.506165 
	C364.212341,756.213379 365.633850,754.162659 367.120819,752.160461 
	C370.046143,748.221497 374.246429,747.160522 378.068390,749.349670 
	C381.887970,751.537354 383.404205,756.500122 381.005280,760.691528 
	C369.567017,780.676758 349.690826,787.951721 330.094543,780.479919 
	C321.051147,777.031860 313.622650,771.139648 307.175232,764.028687 
	C303.713837,760.210938 303.940552,755.150696 307.415100,751.982666 
	C310.691956,748.994873 315.499481,749.183594 319.028076,752.825623 
	C324.906799,758.893494 331.243469,764.141785 339.722809,766.088196 
	C348.690155,768.146606 356.099274,765.350525 362.516418,758.506165 
z"/>
<path fill="#040404" opacity="1.000000" stroke="none" 
	d="
M807.350037,552.306580 
	C810.041809,539.750916 812.590698,527.570251 815.122620,515.386169 
	C815.427124,513.921204 815.532898,512.408936 815.914490,510.967194 
	C817.067383,506.612213 820.487366,504.324615 824.880615,504.863678 
	C828.902832,505.357208 832.127808,509.027985 831.666138,513.322205 
	C825.953613,566.459045 806.120239,612.436584 763.640198,646.852661 
	C762.615723,647.682678 761.497437,648.444580 760.318848,649.027832 
	C756.671875,650.832275 753.422729,649.875427 750.872803,647.000549 
	C748.269836,644.065918 748.093750,640.627563 750.209229,637.329224 
	C751.081055,635.969788 752.416504,634.851196 753.699585,633.820312 
	C780.231262,612.503418 797.364624,584.999878 807.350037,552.306580 
z"/>
<path fill="#050505" opacity="1.000000" stroke="none" 
	d="
M654.575073,748.341187 
	C656.919495,750.080261 659.390259,751.392639 660.792908,753.437683 
	C671.058044,768.403870 684.976257,770.981873 699.681396,760.264771 
	C702.619507,758.123535 705.264221,755.559143 707.925232,753.062988 
	C712.014160,749.227478 716.822205,748.902405 720.275940,752.371460 
	C723.557861,755.667786 723.447571,760.602356 719.742371,764.382874 
	C708.458618,775.895874 695.799072,784.656555 678.631653,783.092773 
	C663.581055,781.721863 653.281067,773.056213 646.177002,760.373840 
	C642.793274,754.333069 646.605225,749.009583 654.575073,748.341187 
z"/>
</svg>